<?xml version="1.0" encoding="UTF-8" standalone="no"?>
<!-- Generator: Adobe Illustrator 23.0.0, SVG Export Plug-In . SVG Version: 6.00 Build 0)  -->

<svg
   xmlns:dc="http://purl.org/dc/elements/1.1/"
   xmlns:cc="http://creativecommons.org/ns#"
   xmlns:rdf="http://www.w3.org/1999/02/22-rdf-syntax-ns#"
   xmlns:svg="http://www.w3.org/2000/svg"
   xmlns="http://www.w3.org/2000/svg"
   xmlns:sodipodi="http://sodipodi.sourceforge.net/DTD/sodipodi-0.dtd"
   xmlns:inkscape="http://www.inkscape.org/namespaces/inkscape"
   version="1.1"
   id="svg8"
   inkscape:version="0.92.4 (5da689c313, 2019-01-14)"
   sodipodi:docname="3. Vaccination injection, care, health, vaccine, medicine, doctor.svg"
   x="0px"
   y="0px"
   viewBox="0 0 128 128"
   style="enable-background:new 0 0 128 128;"
   xml:space="preserve"
   inkscape:export-filename="D:\Ibrahim\Icon\Inkscape\1. Icon Set\2. Medical\++Primary\3. Vaccination injection, care, health, vaccine, medicine, doctor.svg.png"
   inkscape:export-xdpi="96"
   inkscape:export-ydpi="96"><metadata
   id="metadata18"><rdf:RDF><cc:Work
       rdf:about=""><dc:format>image/svg+xml</dc:format><dc:type
         rdf:resource="http://purl.org/dc/dcmitype/StillImage" /><dc:title /></cc:Work></rdf:RDF></metadata><defs
   id="defs16" />
<style
   type="text/css"
   id="style2">
	.st0{fill:none;stroke:#020000;stroke-width:0.5292;stroke-linecap:round;}
	.st1{fill:none;stroke:#000000;stroke-width:0.5292;}
	.st2{fill:none;stroke:#020000;stroke-width:0.5292;stroke-linecap:round;stroke-linejoin:round;}
</style>
<sodipodi:namedview
   bordercolor="#666666"
   borderopacity="1.0"
   id="base"
   inkscape:current-layer="layer1"
   inkscape:cx="47.517035"
   inkscape:cy="-5.5386814"
   inkscape:document-units="px"
   inkscape:pageopacity="0.0"
   inkscape:pageshadow="2"
   inkscape:snap-nodes="true"
   inkscape:snap-others="true"
   inkscape:window-height="658"
   inkscape:window-maximized="1"
   inkscape:window-width="1280"
   inkscape:window-x="-8"
   inkscape:window-y="-8"
   inkscape:zoom="1.4142136"
   pagecolor="#ffffff"
   showgrid="false"
   showguides="true"
   units="px"
   inkscape:snap-global="true"
   inkscape:object-nodes="true">
	
		<inkscape:grid
   dotted="false"
   empspacing="1"
   enabled="true"
   id="grid815"
   originx="0"
   originy="0"
   snapvisiblegridlinesonly="true"
   spacingx="0"
   spacingy="0"
   type="xygrid"
   visible="true">
		</inkscape:grid>
</sodipodi:namedview>
<g
   id="layer1"
   transform="translate(0,-263.13332)"
   inkscape:groupmode="layer"
   inkscape:label="Layer 1">
	
	
	
	
	
		
	
	
	<path
   style="color:#000000;font-style:normal;font-variant:normal;font-weight:normal;font-stretch:normal;font-size:medium;line-height:normal;font-family:sans-serif;font-variant-ligatures:normal;font-variant-position:normal;font-variant-caps:normal;font-variant-numeric:normal;font-variant-alternates:normal;font-feature-settings:normal;text-indent:0;text-align:start;text-decoration:none;text-decoration-line:none;text-decoration-style:solid;text-decoration-color:#000000;letter-spacing:normal;word-spacing:normal;text-transform:none;writing-mode:lr-tb;direction:ltr;text-orientation:mixed;dominant-baseline:auto;baseline-shift:baseline;text-anchor:start;white-space:normal;shape-padding:0;clip-rule:nonzero;display:inline;overflow:visible;visibility:visible;opacity:1;isolation:auto;mix-blend-mode:normal;color-interpolation:sRGB;color-interpolation-filters:linearRGB;solid-color:#000000;solid-opacity:1;vector-effect:none;fill:#8a2be2;fill-opacity:1;fill-rule:nonzero;stroke:none;stroke-width:1.99999976;stroke-linecap:round;stroke-linejoin:miter;stroke-miterlimit:4;stroke-dasharray:none;stroke-dashoffset:0;stroke-opacity:1;color-rendering:auto;image-rendering:auto;shape-rendering:auto;text-rendering:auto;enable-background:accumulate"
   d="m 25.070584,265.13332 -5.506944,5.68209 -0.704968,0.72857 -1.409934,1.45519 L 7.5245202,283.24021 2,288.94184 l 1.4353207,1.39268 5.5049921,-5.68209 31.0849462,30.98487 -5.522567,5.70162 1.435321,1.39269 4.272764,-4.41051 45.389334,39.96995 c 1.163075,1.03444 2.742876,1.14554 4.141926,0.74224 0.477094,-0.13753 0.940064,-0.34586 1.394311,-0.58208 l 0.597562,0.54693 32.85616,30.12541 L 126,387.70938 95.264604,354.40793 c 0.271746,-0.50353 0.504873,-1.02142 0.644429,-1.56067 0.366269,-1.41528 0.132643,-3.02444 -1.01937,-4.18002 l 0.04101,0.043 -40.214367,-45.35905 4.292292,-4.42808 -1.437274,-1.39269 -5.504992,5.68013 -31.08495,-30.9829 5.52452,-5.70163 z m -5.481558,8.53192 31.084947,30.98486 -6.381808,6.58646 -2.872593,2.96313 -31.0869,-30.98291 z m 33.731014,31.12746 40.134302,45.26527 0.01953,0.0215 c 0.636522,0.6385 0.741766,1.33131 0.499921,2.26581 -0.241846,0.9345 -0.919333,2.01615 -1.814168,2.90453 -0.894834,0.88839 -2.00108,1.5821 -2.970235,1.86147 -0.969155,0.27938 -1.69084,0.19121 -2.259409,-0.31448 l -0.002,-0.002 -45.322939,-39.91134 0.570224,-0.58794 z M 9.0086614,328.12851 v 1.00008 11.00087 h 2.0387416 c -0.29551,4.71543 -2.27846,7.88377 -4.3840752,10.90711 -2.2552318,3.23822 -4.708185,6.35997 -4.6535637,10.78601 v 27.31074 H 35.996598 v -7.00055 h 0.0078 v -20.00158 h -0.0078 v -0.28518 c 0.164789,-4.3957 -2.325271,-7.52431 -4.604756,-10.77428 -2.133714,-3.04214 -4.16246,-6.21356 -4.37431,-10.94227 h 1.987967 v -12.00095 z m 1.9996856,2.00016 h 15.997479 v 8.00063 H 11.115752 11.008347 Z m 1.987968,10.00079 h 12.103562 c 0.237441,5.26879 2.481138,8.99068 4.655516,12.09079 2.318658,3.30581 4.378549,5.94866 4.243473,9.55155 l -0.002,0.0195 v 0.33986 H 16.007559 v 1.00008 19.0015 h 17.989354 v 5.00039 H 4.009449 v -25.33011 -0.006 c -0.045338,-3.67375 2.0013495,-6.32371 4.2942454,-9.61596 2.1523066,-3.09038 4.3756656,-6.78743 4.6926206,-12.05173 z m 81.983178,16.91735 13.285017,14.39371 -14.421557,-13.22174 z m -76.972249,7.08454 h 15.989669 v 16.00126 H 18.007244 Z"
   id="rect1617"
   inkscape:connector-curvature="0" />
</g>
</svg>